<svg width="96" height="96" viewBox="0 0 96 96" fill="none" xmlns="http://www.w3.org/2000/svg" role="img" aria-labelledby="title desc">
  <title id="title">XLOG mark</title>
  <desc id="desc">Rounded square document-inspired icon with a folded corner and luminous X monogram.</desc>
  <defs>
    <linearGradient id="bg" x1="14" y1="10" x2="81" y2="84" gradientUnits="userSpaceOnUse">
      <stop stop-color="#09111E"/>
      <stop offset="1" stop-color="#13233B"/>
    </linearGradient>
    <linearGradient id="stroke" x1="30" y1="24" x2="67" y2="72" gradientUnits="userSpaceOnUse">
      <stop stop-color="#99EDFF"/>
      <stop offset="1" stop-color="#458BFF"/>
    </linearGradient>
    <linearGradient id="fold" x1="61" y1="16" x2="77" y2="31" gradientUnits="userSpaceOnUse">
      <stop stop-color="#74D9FF"/>
      <stop offset="1" stop-color="#2A74FF"/>
    </linearGradient>
  </defs>

  <rect x="12" y="10" width="72" height="76" rx="22" fill="url(#bg)"/>
  <path d="M61 10H62.5C74.374 10 84 19.626 84 31.5V33L61 10Z" fill="url(#fold)"/>
  <path d="M61 10H62.5C74.374 10 84 19.626 84 31.5V33L61 10Z" fill-opacity=".18" fill="#fff"/>
  <path d="M34 28L48.5 47.5L63 28" stroke="url(#stroke)" stroke-width="7.5" stroke-linecap="round" stroke-linejoin="round"/>
  <path d="M34 68L48.5 48.5L63 68" stroke="url(#stroke)" stroke-width="7.5" stroke-linecap="round" stroke-linejoin="round"/>
  <path d="M28 22H58" stroke="#8FCBFF" stroke-opacity=".28" stroke-width="2.5" stroke-linecap="round"/>
  <path d="M28 76H68" stroke="#8FCBFF" stroke-opacity=".18" stroke-width="2.5" stroke-linecap="round"/>
</svg>
